# xmcd
#
# Track frame offsets:
#	183
#	18903
#	37910
#	58623
#	73415
#	87165
#	109438
#	133465
#	146355
#	160488
#	177903
#	197753
#	210720
#	229943
#	241870
#	256978
#	271375
#	290158
#	304818
#	316145
#
# Disc length: 4514
#
# Revision: 4
# Processed by: cddbd v1.5.1PL0 Copyright (c) Steve Scherf et al.
# Submitted via: ExactAudioCopy v0.90b4
# Normalized: r2:DSETVAR1,TSWAP
#
DISCID=3111a014
DTITLE=Various Artist - Charly Blues Masterworks: Disc 4 - Keepers Of The Faith
DYEAR=1900
DGENRE=
TTITLE0=Robert Cray - The Score
TTITLE1=John Lee Hooker - Shake It Baby
TTITLE2=John Mayall's Bluesbreakers - The Last Time
TTITLE3=Bo Diddley - I'm Bad
TTITLE4=Clarence 'Gatemouth' Brown - Long Way Home
TTITLE5=Walter 'Wolfman' Washington - It's Rainin' In My Life
TTITLE6=Eric Clapton and The Yardbirds - Five Long Years
TTITLE7=Otis Rush - Three Times A Fool
TTITLE8=Otis Rush - I Can't Quit You Baby
TTITLE9=Walter 'Wolfman' Washington - Honky Tonk
TTITLE10=Fenton Robinson - Mellow Fellow
TTITLE11=Fenton Robinson - The Getaway
TTITLE12=John Lee Hooker - Waterfront
TTITLE13=Buddy Guy - My Love Is Real
TTITLE14=Jimmy Page and Sonny Boy Williamson - It's  Bloody Life
TTITLE15=Robert Cray - I'm Gonna Forget About You
TTITLE16=Clarence 'Gatemouth' Brown - For Now So Long
TTITLE17=Buddy Guy - I Cry And Sing The Blues
TTITLE18=Bo Diddley - Who Do You Love
TTITLE19=Luther Allison - Sweet Home Chicago
EXTD=vh
EXTT0=
EXTT1=
EXTT2=
EXTT3=
EXTT4=
EXTT5=
EXTT6=
EXTT7=
EXTT8=
EXTT9=
EXTT10=
EXTT11=
EXTT12=
EXTT13=
EXTT14=
EXTT15=
EXTT16=
EXTT17=
EXTT18=
EXTT19=
PLAYORDER=
